<svg id="Layer_2" data-name="Layer 2" xmlns="http://www.w3.org/2000/svg" viewBox="0 0 381.3 136.4"><defs><style>.cls-1{fill:#1d1d1b;}</style></defs><path class="cls-1" d="M160.2,473.2c5.4,2.5,12-.9,10.4-7.5-2.3-8.9-13.2-2.8-17.9.1-7.9,4.9-14.7,11.3-22.2,16.6a60.6,60.6,0,0,1-11.9,6.7c-4.4,1.7-17.7,4.1-15.5-5.3,0-.3-.1-2.7-.8-2.1-3.2,3.1-1.1,9.2,1.9,11.7,6.4,5.1,16.6-.1,22.5-3.7,7.5-4.5,13.9-10.5,20.9-15.7a54.6,54.6,0,0,1,11.7-7.3,11.2,11.2,0,0,1,4.6-1.4c1.1-.1,5,.8,4.6,2.6s-6.3,2-8.2,2.4-.9,2.6-.1,2.9Z" transform="translate(-100.7 -442.9)"/><path class="cls-1" d="M114.8,529.1a12,12,0,0,0,8.2,10.2c6.2,2.2,12.9-.5,17.9-4s10.9-9.8,16.8-14a51.7,51.7,0,0,1,8.4-5,23.4,23.4,0,0,1,5.8-2c1.7-.2,10.6.3,6.2,4.9-.4.5-.3,3.1.5,2.6,3.2-1.9,2.8-7.3.3-9.8-4.6-4.8-13.3.3-17.6,3-7.2,4.4-12.8,10.7-19.5,15.8s-22,9.6-25.8-2.9c-.5-1.8-1.3.4-1.2,1.2Z" transform="translate(-100.7 -442.9)"/><path class="cls-1" d="M144.1,525.9c1.1-3.2.9-6.9,1-10.3a130.2,130.2,0,0,0-.2-15.3c-.4-4-1.2-17.7-7.2-17.6-.8,0-.6,2-.2,2.4,5.5,5.6,5.8,13.8,6,21.3s-1.3,13.1-.1,19.1c.1.3.5,1.1.7.4Z" transform="translate(-100.7 -442.9)"/><path class="cls-1" d="M200.9,487.3c-6.8-3.1-18.8,1-17.4,10.3.7,4,5.1,3.1,8.3,2.8s7.5-1.1,10,1.4c3.9,4-1.9,7.9-4.8,10-6.3,4.3-17.9,9.5-15.6,19.1.8,3.2,3.4,5.4,6.9,4.6s5.2-4.4,5.4-7.7c0-.7-.6-2.5-1-1s-3,6.3-6.5,5.3c-7.4-2.2-.9-7.9.9-9.4,3.3-2.6,7-4.8,10.4-7.1s8.2-6.6,7.6-12.3-4.8-7.2-9.6-7.2c-1.9,0-3.8.4-5.7.5a10.6,10.6,0,0,1-4.3-.3,11.4,11.4,0,0,1,3.1-4.1c3.5-2.9,7.9-3.1,11.9-1.4,1.2.4,1.3-3.1.4-3.5Z" transform="translate(-100.7 -442.9)"/><path class="cls-1" d="M213.2,495.2c3.5-3.6,9.4-5.7,14.2-3.6s5.8,11.1,6.2,16.7c.1,1.6-.1,6.1,1.8,7.1s2.3-.2,2.6-1.6-.4-3.8-1.3-2.1-1.3-2.2-1.3-2.2a35.7,35.7,0,0,1-.3-5.7,43.5,43.5,0,0,0-.6-5.2,16.3,16.3,0,0,0-4.3-8.8c-5.3-5-13.5-2-17.7,2.8-.6.6-.2,3.6.7,2.6Z" transform="translate(-100.7 -442.9)"/><path class="cls-1" d="M234.8,505.9a25.3,25.3,0,0,1-7.6,6.2,18.5,18.5,0,0,1-6.5,1.8,8,8,0,0,1-4-.8c-1.8-.6-2.3-1.8-1.6-3.4,1.1-9.1,12.5-5.6,17.5-9.5.7-.5.7-3.7-.4-3.2-3.1,1.4-6.5.9-9.7,1.9a16.1,16.1,0,0,0-6,3.3c-2.8,2.5-4.7,6.1-3.7,9.9,2.8,11.6,18.9,2.4,22.7-3.7.3-.5.2-3.5-.7-2.5Z" transform="translate(-100.7 -442.9)"/><path class="cls-1" d="M270.6,506.5c-.8-1.1-4.3,3.1-5.3,3.8a26.7,26.7,0,0,1-5.1,3.1c-6.9,3.1-15.6.1-12.2-10.2,3-8.8,12-12.9,20.2-15.3,1-.3,1.1-3.5-.1-3.5-12.3.3-26.7,15-21.8,27.9,2.6,6.7,9.2,7.4,15.1,4.4,3.9-2,11.2-6.4,10.6-11.6-.1-.2-.3-1.2-.8-1.1h-.4c-.8.1-.5,2.1-.2,2.5Z" transform="translate(-100.7 -442.9)"/><path class="cls-1" d="M339.3,461.1c16.1,17,9.5,37.7,3.9,57.8s-8.9,39.5-8.3,59.5c0,.8.8,1.4.8.2.8-12.3,1.7-24.5,4.1-36.7s6.2-23.4,9.2-35.2c3.9-15.2,5.9-38.4-9.2-48.8-.9-.6-1,2.6-.5,3.2Z" transform="translate(-100.7 -442.9)"/><path class="cls-1" d="M309,473c3.9-9,11.3-15.4,20.3-19.3s19.4-6.3,28.6-4.9a17.2,17.2,0,0,1,5.9,2c4.2,2.5,4.3,8.3,2.7,12.5a47.9,47.9,0,0,1-7.4,11.8c-6.1,7.4-13.9,12.5-22.5,16.4l.8,3.8C347,481,366,479,381.7,481c2.1.2,4.7.5,6.4,1.9s2.9,6.4,2.7,9.6c-.3,5.1-1.9,9.6-5.8,12.9s-11.8,5.7-18.2,7.5c-14.9,4.4-29.5,8.9-43.9,15a259.3,259.3,0,0,0-42.8,23c-.8.5-.4,3.4.4,2.9,25.9-17.2,55.6-30.8,86.4-35.6,11.5-1.8,23-5.9,25.7-18.4,1.2-5.3,1.5-12.2-.6-17.2s-7.3-5.7-12.3-6c-16.1-.9-32.5,2.3-43.3,15.2-.6.6-.6,4.1.8,3.7,11.1-3.8,20.7-12,27-21.8,4.7-7.3,9.5-19,2.1-26.4s-24.5-3.4-33.5-.3c-11.2,3.9-21.1,11.7-25.2,23.1-.3,1,.5,5,1.4,2.9Z" transform="translate(-100.7 -442.9)"/><path class="cls-1" d="M357.3,502.5c-4.3,2-6.5,6.5-8.9,10.3s-5.5,9.6-8.7,14.1c-1.9,2.9-8.9,10.9-12.6,6.5-2.1-2.5-.2-9.8.7-12.6s2.5-8.3,6.3-8.8c6.4-.7,7.4,10.4,8.4,15s2.1,8.4,4.7,11.8c6.5,8.5,12-3.5,12.7-9.6.2-1.6-1.2-3.4-1.6-.9-.8,5.2-5,13-10.3,6.9-2.3-2.8-3.1-6.8-4-10.2s-2-9.3-4.5-13.1c-7.3-11-13.8,7.6-14.5,13.2-.4,3.5-1.2,9.2,1,12.4s7.7,1.6,10.5-.6c4.3-3.5,6.7-8.7,9.5-13.4s6.6-13.3,11.8-17.3c.8-.6.7-4.2-.5-3.7Z" transform="translate(-100.7 -442.9)"/><path class="cls-1" d="M425.3,503.4c-2.2,5.1-9.8,8.5-15.2,7.6-3.7-.7-7.5-3.6-8.5-7.3-1.5-5.5,2.6-10.3,6.6-13.2s5.4-2.9,8.4-2.3c1.3.3,4.1.8,3.3,3.1-.2.7-2.6,1.4-3.2,1.6-5.2,2.4-10.7,4-15,8-.7.7-.4,4.3.6,3.6,4.8-3.7,10.2-5.5,15.7-8,3-1.5,5.2-3.2,4.6-6.8s-4-5.6-7.4-5.7-9.2,3.4-12.1,7c-4.8,6-5.1,15.8,1,21.1s20.7,2.4,22.3-6.8c.1-.6-.4-3.5-1.1-1.9Z" transform="translate(-100.7 -442.9)"/><path class="cls-1" d="M427.3,495.9h2.6a2,2,0,0,0,1.9-.8c.3.2,0,4.9,0,5.5-.1,3.6-.1,7.3-.1,10.9,0,.6.2,1.9.9,2s2.2-.1,3.2-1.4.6-3-.4-2.8a9.3,9.3,0,0,1-2.9.2l.9,2c0-5.5.7-11.6-.1-16.9s-3.5-2-6.2-.8c-.5.2-.5,2.2.2,2.2Z" transform="translate(-100.7 -442.9)"/><path class="cls-1" d="M431.2,486.8l.4.3h0a2.8,2.8,0,0,1-.1-.9.6.6,0,0,0,.1-.4h.1c.1-.1.1-.2,0-.1h-.3a.9.9,0,0,1-.7-.1l.5,2.5c-.2.6-.2.3-.1.2h.2l-.2-.3v-.7c0,.4.1,1.4.6,1.6s.8-.4.8-.8a3.3,3.3,0,0,0-.1-2.2c-.1-.3-.2-.7-.5-.8h-.3c.2,0,0-.1-.1-.1a1.2,1.2,0,0,0-.8.4,2.1,2.1,0,0,0-.7,1.2,2.6,2.6,0,0,0,0,1.5c0,.3.1.9.5,1a2.5,2.5,0,0,0,1.7,0c.7-.3.9-1.5.8-2.2s-.3-2.6-1.6-2.5-.5.9-.5,1.2,0,1.3.4,1.5Z" transform="translate(-100.7 -442.9)"/><path class="cls-1" d="M442.5,497.4c1.9-3.8,5.1-7.1,9.7-6.6,6.9.9,7.1,10.1,3.6,14.5s-6.4,4.7-9.9,2.9-3.6-6-2.8-9.1,2.2-4.7,3.6-6.9c.3-.5.2-3.7-.6-3-4.8,4.1-6.4,13-4.1,18.7,2.9,7.2,11.9,5.7,15.4-.1s3.8-13.7-.4-18.3c-5.7-6.4-13.8.1-15.3,6.5-.1.5.2,2.6.8,1.4Z" transform="translate(-100.7 -442.9)"/><path class="cls-1" d="M466.8,487.4c-1.3,2.7-.1,5.8.5,8.6,1,5,2.4,10,3.8,15,.9,3,2.1-.6,1.9-2-.4-5.3-2.8-23.8,7.7-18.9,1.5.7,1.9-4.3.5-4.9-13.7-6.2-10.7,19.2-10.2,25.2l1.9-2c-.9-3.1-1.8-6.2-2.6-9.3s-2.4-7.3-2.4-10.7c0-.6-.5-2.2-1.1-1Z" transform="translate(-100.7 -442.9)"/></svg>