<svg id="Layer_2" data-name="Layer 2" xmlns="http://www.w3.org/2000/svg" viewBox="0 0 391.58 137.22"><defs><style>.cls-1{fill:#1d1d1b;}</style></defs><path class="cls-1" d="M173.22,333.62c3,3,6.95,4.26,10.3,1,2.1-2.05,4.73-6.17,4.21-9.32-.44-2.63-3.37-4.7-5.76-5.45-4.38-1.38-10.06,1.1-14,2.9-10,4.55-18.51,11.7-27.87,17.31-4.5,2.7-9.31,5.21-14.49,6.26a19.74,19.74,0,0,1-8,.25c-3.56-.76-6.46-3-5-7.95.47-1.65,1.81-3.28,2.64-4.76.23-.41.46-3.09-.55-2.59-5.61,2.81-6.27,13-2,17.23,6.82,6.79,19.47.84,26.26-3,9.36-5.31,17.65-12.35,27.21-17.33,4.38-2.28,10.85-5.64,15.83-3.88,3,1.08,3.54,2.87,1.55,5.49-2.79,3.67-6.08,2.22-9.79,1.16-1-.3-.87,2.25-.43,2.7Z" transform="translate(-109.85 -319.44)"/><path class="cls-1" d="M116.24,393.9c-1.53,5.83-1.07,13.66,2.93,18.52,5.6,6.79,14.76,2.6,20.58-1.53,8.27-5.87,15.17-13.43,23.61-19.09,4-2.67,8.57-5.41,13.35-6.32,2.82-.54,5-.34,6.3,2.53a7.93,7.93,0,0,1-2,9.15c-.55.48-.51,3.23.4,2.73,4.22-2.31,5-9.44,3.73-13.63-2.33-7.95-11.34-4.32-16.52-1.58-10,5.28-17.76,13.61-26.5,20.56-4.22,3.36-9.56,7.39-15.22,7.27-9.28-.19-10.18-10.34-9.43-17.46.1-.89-.77-3-1.25-1.15Z" transform="translate(-109.85 -319.44)"/><path class="cls-1" d="M152.15,393c2-2.86,1.19-8.28,1.31-11.66a166.72,166.72,0,0,0-.09-16.73c-.26-3.81-1.15-22.81-7.7-21.76-1.26.21-.84,3-.34,3.64,5.48,7.39,5.64,16.77,5.75,25.74.06,3.91-.05,7.82-.15,11.72-.08,2.92-.71,6.1.47,8.85.15.33.49.56.75.2Z" transform="translate(-109.85 -319.44)"/><path class="cls-1" d="M211.75,363c-6.21-2.69-13.39-1.62-17.47,4.18-1.66,2.38-3.92,7.42-.78,9.57,2.62,1.78,7.56.23,10.46,0,3.39-.22,12.57.41,11,6-1.05,3.67-5.88,6.52-9.1,7.35-2.83.73-5.77,1.06-8.61,1.76-6.32,1.54-9.56,6.23-8.94,12.84.33,3.5,1.41,9.15,5.09,10.76s6.59-2.3,6.7-5.54c0-.82-.69-1.89-1.06-.62-.82,2.8-5,3.78-6.87,1.53a12.4,12.4,0,0,1-2.27-7.8,8.17,8.17,0,0,1,4.13-6.21c2.81-1.46,6.54-1.71,9.6-2.31,5.13-1,7.62-2.2,10.81-6.36,3.81-5,3.62-11.8-3-14.57a14.8,14.8,0,0,0-5.71-.93c-2.75,0-7.9,1.8-10.38.36-1.44.11-1.66-.33-.66-1.35a8,8,0,0,1,1.48-2.2,12.49,12.49,0,0,1,3.77-2.84,13.65,13.65,0,0,1,11.52-.16c1.12.45,1.31-3.05.33-3.48Z" transform="translate(-109.85 -319.44)"/><path class="cls-1" d="M223.79,371.08c3.48-3.37,8.72-5.35,13.6-4.34,7.62,1.59,8,9.85,8.41,16.1.15,2.37-.13,7.17,1.81,9,1.55,1.44,2.86.39,3.2-1.5.08-.44-.38-4.33-1.3-2.79-.8,1.35-1.69-6-1.72-6.53a54.36,54.36,0,0,0-.66-6.86,16.92,16.92,0,0,0-4.12-8.69c-5.59-5.8-15-2.85-19.93,2.25-.7.72,0,4.05.71,3.38Z" transform="translate(-109.85 -319.44)"/><path class="cls-1" d="M246.46,381.21a23.76,23.76,0,0,1-10.66,6.51c-3.74,1.1-15.39,1.75-9.64-5.55,4.83-6.13,13.6-3.05,19.21-7.33.69-.53.66-3.66-.47-3.19-5.19,2.2-11.07,1.52-16,4.38-3.81,2.2-7.26,6.12-6.47,10.82,2,11.67,20.69,2.6,24.62-3,.37-.53,0-3.28-.56-2.67Z" transform="translate(-109.85 -319.44)"/><path class="cls-1" d="M278.5,380.7c-3.27,2-5.1,5.34-8.86,6.91-4.6,1.91-12.87.93-13.05-5.37-.27-9.84,12.16-14.67,19.51-16.93,1.1-.34,1.16-3.86-.09-3.85-10.87,0-22.22,11.18-21.44,22.3.35,4.85,4.95,8.81,9.7,9.12,6.2.41,12.19-4.49,14.93-9.7.21-.39.19-3-.7-2.48Z" transform="translate(-109.85 -319.44)"/><path class="cls-1" d="M344.5,338.46c16.06,17,9.51,37.76,3.82,57.82-5.44,19.18-8.88,39.5-8.27,59.48,0,.84.77,1.41.85.24.78-12.29,1.72-24.53,4-36.65s6.23-23.47,9.25-35.26c3.9-15.2,5.91-38.44-9.17-48.78-.93-.64-1,2.63-.5,3.15Z" transform="translate(-109.85 -319.44)"/><path class="cls-1" d="M314.14,350.4c4-9.18,11.41-15.21,20.31-19.4,8.42-4,19.21-7.5,28.62-5.42A17.16,17.16,0,0,1,369,328c4.05,2.77,4.32,8.45,2.61,12.72a46,46,0,0,1-7.36,11.82c-6.08,7.39-13.88,12.46-22.49,16.43l.77,3.67c9.43-14.26,28.7-16.17,44.3-14.26,2.13.27,4.68.48,6.42,1.87,2.91,2.32,2.88,6.45,2.7,9.71-.28,5.05-1.86,9.53-5.76,12.86-5.17,4.42-11.89,5.71-18.24,7.56-14.94,4.37-29.5,8.78-43.86,14.89a267.33,267.33,0,0,0-42.89,23c-.76.5-.34,3.36.42,2.85,25.84-17.12,55.63-30.82,86.46-35.59,11.43-1.76,23-5.9,25.68-18.41,1.14-5.26,1.53-12.13-.6-17.19s-7.35-5.68-12.33-6c-16.27-.94-32.27,2.35-43.28,15.18-.57.67-.63,4.14.77,3.67,11.11-3.73,20.71-12,27-21.76,4.94-7.69,9.58-19.68,1.48-27-8.34-7.58-22.27-3.88-31.54-.42-11.62,4.35-22.18,11.81-26.48,23.89-.35,1,.43,5,1.34,2.89Z" transform="translate(-109.85 -319.44)"/><path class="cls-1" d="M361.43,379.93c-4.22,1.95-6.47,6.47-8.9,10.24-2.86,4.44-5.29,9.14-8.21,13.54a23.5,23.5,0,0,1-4.94,5.76c-2.17,1.68-6.64,4.1-8.55.56-1.66-3.07.45-10.25,1.53-13.26,1-2.77,3.16-8.08,7.07-7.59,5.65.71,6.42,11.69,7.45,16,.91,3.82,2.06,7.85,4.51,11,6.54,8.49,12-3.49,12.68-9.6.19-1.63-1.2-3.42-1.57-.94-.8,5.22-5.05,13.08-10.28,6.91-2.34-2.76-3.2-6.78-4.07-10.18-1.11-4.35-2-9.27-4.52-13.1-7.29-11-13.71,7.56-14.44,13.2-.45,3.52-1.23,9.21,1,12.37,2.56,3.69,7.74,1.65,10.53-.6,4.29-3.47,6.69-8.67,9.43-13.34,3.26-5.55,6.65-13.36,11.84-17.36.78-.6.72-4.21-.53-3.63Z" transform="translate(-109.85 -319.44)"/><path class="cls-1" d="M431.24,381.16c-2.69,5.58-11.86,8.36-17.57,7.07a13.77,13.77,0,0,1-4.86-2.19c-3.05-2.22-3.19-3.85-2.81-7.63s.75-4.88,3.49-7.32a22.23,22.23,0,0,1,3.64-2.69,13.14,13.14,0,0,1,8.08-1.92c1.08.14,4.84.75,4.14,3-.23.71-3.59,1.58-4.14,1.8-5.42,2.11-11.17,3.63-15.73,7.41-.82.68-.48,4.32.53,3.63,5.13-3.51,10.78-5.23,16.51-7.49,3.31-1.3,6.37-2.82,5.63-6.89-1.89-10.49-16.43-3.71-20.63.65-5.75,6-6.27,16.16.91,21.39,6.94,5.06,22,2.4,23.93-7,.12-.6-.37-3.43-1.12-1.86Z" transform="translate(-109.85 -319.44)"/><path class="cls-1" d="M435.45,366c1-.17,4.7-1.47,5.52-.82s0,8,0,8.84q0,8.34,0,16.68c0,.6.16,1.81.91,1.94,2.15.36,2.63-.15,3.77-1.78.32-.46.47-3.23-.58-2.75a3.33,3.33,0,0,1-3.29.61l.9,1.94c0-8.42.8-17.39-.11-25.75-.54-4.94-3.72-2.75-7.25-1.15-.53.24-.46,2.34.18,2.24Z" transform="translate(-109.85 -319.44)"/><path class="cls-1" d="M439.74,355.55a1.22,1.22,0,0,1,.48.35l.12.16c0-.08-.06-.08,0,0s0,.06,0-.08a2,2,0,0,1,0-.77,3,3,0,0,0,.14-.46c.06-.09,0-.1-.11,0a1.45,1.45,0,0,1-.29,0,2.18,2.18,0,0,1-1-.11l.5,2.46c-.18.56-.13.25,0,.12l.23-.14c.07,0,0-.05.05-.07s0,0,.05.09c-.15-.4-.19-.49-.14-.26l-.12-.88c0-.33,0-.34,0,0a2.61,2.61,0,0,0,0,.68,3,3,0,0,0,.21.76,1,1,0,0,0,.33.41c.27.14.44,0,.52-.42a1.12,1.12,0,0,0,.4-.88c.07-.77,0-2.12-.73-2.62-1.06-.74-1.91.71-2.16,1.57a3.26,3.26,0,0,0,0,1.49c.06.27.18.85.5,1a3,3,0,0,0,1.91.05,1.19,1.19,0,0,0,.77-.8,4,4,0,0,0,.24-1.32c0-1.07-.36-3.05-1.8-2.94-.47,0-.54.87-.55,1.19s0,1.3.46,1.48Z" transform="translate(-109.85 -319.44)"/><path class="cls-1" d="M451.77,375.24c2.39-4.67,6.63-8.35,12.18-8,8.89.56,10.56,10.68,6.05,17.06-2.94,4.16-9,6.41-13.8,4.14-8.52-4-2.79-14.31,1.07-19.48.39-.53.21-3.66-.63-3-5.83,4.72-8.45,15.18-5,22,4.23,8.49,15.95,5.58,20-1.39,3.4-5.8,4.31-16.15-1.43-20.89-7.4-6.1-17,.32-19.27,8.11-.14.5.27,2.53.84,1.4Z" transform="translate(-109.85 -319.44)"/><path class="cls-1" d="M480.1,365c-1.62,3.21.16,7.09,1.07,10.3,1.57,5.6,3.46,11.1,5.47,16.55.9,2.43,1.85-1.69,1.76-2.47-.52-4.91-1.58-11.46-.42-16.34,1.38-5.83,6.94-7.37,12.07-5.41,1.6.62,1.88-4.39.47-4.92-5.35-2-11.82-.5-13.89,5.27-2.44,6.78-1.06,15.81-.29,22.78l1.76-2.47c-1.49-3.91-2.86-7.85-4.15-11.82-.92-2.88-3-7-2.77-10.1.05-.53-.41-2.69-1.08-1.37Z" transform="translate(-109.85 -319.44)"/></svg>