<svg id="Layer_1" data-name="Layer 1" xmlns="http://www.w3.org/2000/svg" viewBox="0 0 121.48 85.04"><defs><style>.cls-1{fill:#e70000;}.cls-2{fill:#fefefe;}</style></defs><path class="cls-1" d="M203.5,98.32a15.23,15.23,0,0,0-10.74-10.74C183.28,85,145.29,85,145.29,85s-38,0-47.46,2.54A15.21,15.21,0,0,0,87.09,98.32c-2.54,9.47-2.54,29.24-2.54,29.24s0,19.77,2.54,29.24a15.21,15.21,0,0,0,10.74,10.74c9.47,2.54,47.46,2.54,47.46,2.54s38,0,47.47-2.54A15.23,15.23,0,0,0,203.5,156.8c2.53-9.47,2.53-29.24,2.53-29.24S206,107.79,203.5,98.32Z" transform="translate(-84.55 -85.04)"/><polygon class="cls-2" points="48.59 60.74 80.16 42.52 48.59 24.3 48.59 60.74"/></svg>